<svg width="100" height="38" viewBox="0 0 100 38" fill="none" xmlns="http://www.w3.org/2000/svg">
<path d="M82.3709 10.8786C77.6322 10.8786 73.7911 14.7197 73.7911 19.4584C73.7911 24.1971 77.6322 28.0382 82.3709 28.0382C87.1095 28.0382 90.9507 24.1971 90.9507 19.4584C90.9522 14.7213 87.1095 10.8786 82.3709 10.8786ZM82.3709 24.271C79.7136 24.271 77.5583 22.1172 77.5583 19.4584C77.5583 16.8012 79.7121 14.6458 82.3709 14.6458C85.0281 14.6458 87.1834 16.7996 87.1834 19.4584C87.1834 22.1172 85.0296 24.271 82.3709 24.271Z" fill="white"/>
<path d="M35.1366 11.2034H38.7453L44.2137 21.4706L49.6575 11.2034H53.2907V27.7164H49.2341V18.8934L44.6155 27.7164H43.8134L39.1948 18.9165V27.7164H35.1382V11.2034H35.1366Z" fill="white"/>
<path d="M22.8851 11.2604H18.813V21.1211C18.813 22.6929 17.5383 23.9677 15.9664 23.9677C14.3946 23.9677 13.1198 22.6929 13.1198 21.1211H9.04781C9.04781 24.9422 12.1453 28.0397 15.9664 28.0397C19.7875 28.0397 22.8851 24.9422 22.8851 21.1211V11.2604Z" fill="white"/>
<path d="M63.4255 11.2034H57.3258V27.7164H63.4255C67.9855 27.7164 71.6819 24.02 71.6819 19.4599C71.6819 14.8999 67.9855 11.2034 63.4255 11.2034ZM62.9297 24.271H61.384V14.6458H62.9297C65.5869 14.6458 67.7423 16.7996 67.7423 19.4584C67.7423 22.1172 65.5885 24.271 62.9297 24.271Z" fill="white"/>
<path d="M31.04 11.2604H26.954V27.6595H31.04V11.2604Z" fill="white"/>
<path d="M97.5368 3.43653V35.4833H2.46324V3.43653H97.5368ZM100 0.973289H0V37.9466H100V0.973289Z" fill="white"/>
</svg>
